<?xml version="1.0" encoding="utf-8"?>
<!-- Generator: Adobe Illustrator 25.0.1, SVG Export Plug-In . SVG Version: 6.00 Build 0)  -->
<svg version="1.1" id="Camada_1" xmlns="http://www.w3.org/2000/svg" xmlns:xlink="http://www.w3.org/1999/xlink" x="0px" y="0px"
	 viewBox="0 0 1366.48 286.34" style="enable-background:new 0 0 1366.48 286.34;" xml:space="preserve">
<style type="text/css">
	.st0{fill:#FFFFFF;}
</style>
<g>
	<path class="st0" d="M88.63,79.14c-5.53,0-10.18,2.18-13.93,6.52c-3.76,4.35-6.67,9.68-8.74,16.01c-2.08,6.33-3.56,13.19-4.45,20.6
		c-0.89,7.41-1.33,14.58-1.33,21.49c0,17.98,3.02,33.64,9.07,46.98c6.04,13.34,16.7,20.01,31.97,20.01
		c10.9,0,20.42-3.41,28.54-10.23c8.13-6.82,14.27-15.46,18.44-25.94l4.46,2.37c-13.27,29.25-37.02,43.87-71.28,43.87
		c-22.57,0-41.78-6.67-57.62-20.01C7.92,187.48,0,169.85,0,147.91C0,125.78,7.77,108,23.31,94.56C38.85,81.12,58.21,74.4,81.37,74.4
		c8.71,0,16.73,0.94,24.06,2.82c7.33,1.88,14.2,4.45,20.64,7.71c6.43,3.26,12.57,7.91,18.41,13.93c5.84,6.03,8.76,13.09,8.76,21.19
		c0,7.31-2.29,13.19-6.86,17.64c-4.57,4.44-11.32,6.67-20.26,6.67c-7.75,0-14.75-2.72-21.01-8.15c-6.26-5.43-9.38-11.6-9.38-18.52
		c0-5.34,1.08-10.47,3.26-15.41c2.17-4.94,3.26-9.09,3.26-12.45c0-3.16-1.18-5.73-3.56-7.71C96.33,80.14,92.97,79.14,88.63,79.14z"
		/>
	<path class="st0" d="M318.05,147.62c0,20.95-7.96,38.39-23.86,52.32c-15.91,13.93-34.63,20.9-56.17,20.9
		c-22.73,0-41.75-6.96-57.06-20.9c-15.32-13.93-22.97-31.37-22.97-52.32c0-20.95,7.75-38.39,23.27-52.32
		c15.51-13.93,34.43-20.9,56.76-20.9c21.93,0,40.76,6.92,56.47,20.75C310.2,108.98,318.05,126.47,318.05,147.62z M259.07,147.32
		c0-2.76-0.2-8.3-0.59-16.6c-0.4-8.3-0.59-13.24-0.59-14.82c0-10.67-1.63-19.46-4.89-26.38c-3.26-6.91-8.35-10.37-15.27-10.37
		c-6.33,0-11.17,3.61-14.52,10.82c-3.36,7.21-5.04,15.86-5.04,25.93c0,3.76-0.15,8.35-0.44,13.79c-0.3,5.44-0.55,11.32-0.74,17.64
		c0,2.77,0.19,8.45,0.59,17.05c0.39,8.59,0.59,13.59,0.59,14.97c0,10.67,1.63,19.47,4.89,26.38c3.26,6.92,8.25,10.38,14.97,10.38
		c6.52,0,11.46-3.56,14.82-10.67c3.36-7.11,5.04-15.81,5.04-26.08c0-3.95,0.1-8.64,0.29-14.08
		C258.37,159.82,258.67,153.84,259.07,147.32z"/>
	<path class="st0" d="M486.12,75.88l-0.59,38.53v139.32l0.3,12.15c0,5.34,0.84,9.04,2.52,11.12c1.68,2.08,5.28,3.41,10.82,4
		l8.3,0.59v4.74H401.35v-4.74c1.97,0,4.3-0.05,6.97-0.15c2.67-0.1,5.83-0.35,9.49-0.74c3.65-0.4,6.27-1.53,7.85-3.41
		c1.58-1.88,2.37-5.68,2.37-11.41l0.3-12.15v-50.39c-1.98,3.95-5.29,7.85-9.93,11.71c-4.64,3.85-13.78,5.78-27.42,5.78
		c-18.78,0-34.14-6.67-46.09-20.01c-11.96-13.34-17.93-30.87-17.93-52.61c0-22.33,7.51-40.21,22.53-53.65
		c15.01-13.44,34.09-20.16,57.21-20.16c14.82,0,26.28,2.82,34.38,8.45c8.1,5.63,14.92,11.41,20.45,17.34l21.34-24.31H486.12z
		 M428.32,147.32v-26.38c-0.4-2.37-0.59-4.05-0.59-5.04c0-11.26-1.53-20.2-4.59-26.82c-3.07-6.62-8.25-9.93-15.56-9.93
		c-6.33,0-11.17,3.61-14.53,10.82c-3.36,7.21-5.04,15.86-5.04,25.93c0,3.76-0.15,8.35-0.44,13.79c-0.3,5.44-0.55,11.32-0.74,17.64
		c0,2.77,0.2,8.45,0.59,17.05c0.39,8.59,0.59,13.59,0.59,14.97c0,9.68,1.68,17.74,5.04,24.16c3.36,6.42,8.4,9.63,15.12,9.63
		c5.93,0,10.38-1.82,13.34-5.48c2.97-3.65,4.64-7.26,5.04-10.82c0.39-3.56,0.79-12,1.18-25.34
		C428.12,158.14,428.32,150.09,428.32,147.32z"/>
	<path class="st0" d="M697.17,217.87h-77.96V198.9c-4.55,7.11-10.13,12.55-16.75,16.3c-6.62,3.75-15.76,5.63-27.42,5.63
		c-13.64,0-25.69-4.05-36.16-12.15c-10.67-7.9-16.01-18.87-16.01-32.9v-65.8l-0.3-12.15c0-5.34-0.84-9.04-2.52-11.12
		c-1.68-2.08-5.29-3.41-10.82-4l-8.3-0.59v-4.74h79.14v96.93l0.3,12.15c0,8.11,1.42,14.18,4.26,18.23c2.84,4.05,7.11,6.08,12.8,6.08
		c6.27,0,10.83-1.78,13.67-5.34c2.85-3.56,5.15-7.21,6.91-10.97v-80.03l-0.59-13.64c0-6.52-1.07-10.97-3.22-13.34
		c-2.15-2.37-6.45-3.95-12.89-4.74l-9.08-0.59v-4.74h83v107.9l0.3,12.15c0,5.34,0.84,9.04,2.52,11.11c1.68,2.08,5.29,3.41,10.82,4
		l8.3,0.59V217.87z"/>
	<path class="st0" d="M851.6,173.4c-5.55,14.82-14.46,26.43-26.73,34.83c-12.27,8.4-26.73,12.6-43.36,12.6
		c-23.37,0-42.57-6.47-57.62-19.41c-15.05-12.94-22.57-30.87-22.57-53.8c0-21.34,7.77-38.88,23.31-52.61
		c15.54-13.73,34.2-20.6,55.99-20.6c22.77,0,40.19,6.42,52.27,19.27c12.08,12.85,18.12,28.56,18.12,47.13h-91
		c0,7.12,0.54,14.38,1.62,21.79c1.08,7.41,3.14,14.58,6.18,21.49c3.04,6.92,7.35,12.5,12.95,16.75c5.59,4.25,12.61,6.38,21.05,6.38
		c12.13,0,21.72-3.41,28.78-10.23c7.06-6.82,12.47-15.36,16.25-25.64L851.6,173.4z M799.14,134.87c-0.2-2.17-0.35-4.74-0.45-7.71
		c-0.1-2.97-0.14-6.72-0.14-11.27c0-12.05-1.47-21.19-4.42-27.42c-2.95-6.22-8.04-9.34-15.3-9.34c-6.28,0-10.64,3.01-13.09,9.04
		c-2.46,6.03-4.17,15.27-5.15,27.72l-0.59,18.97H799.14z"/>
	<path class="st0" d="M873.54,88.63h-20.16v-8c6.72-1.78,13.74-5.08,21.08-9.93c7.33-4.84,14.32-10.47,20.98-16.9
		c6.66-6.42,12.22-12.69,16.69-18.82c4.47-6.12,7.9-11.66,10.28-16.6h8.34v58.99h38.56l-4.12,11.26h-34.44v80.63l0.59,15.11
		c0,8.5,1.86,14.92,5.59,19.27c3.73,4.35,8.44,6.52,14.13,6.52c7.65,0,13.25-3.21,16.78-9.63c3.53-6.42,5.3-13.59,5.3-21.49h4.15
		c0,11.07-3.24,20.8-9.73,29.2c-6.48,8.4-20.43,12.6-41.85,12.6c-13.71,0-25.84-3.56-36.37-10.67c-10.53-7.11-15.8-17.09-15.8-29.94
		V88.63z"/>
	<path class="st0" d="M1128.16,173.4c-5.55,14.82-14.46,26.43-26.73,34.83c-12.27,8.4-26.73,12.6-43.36,12.6
		c-23.37,0-42.57-6.47-57.62-19.41c-15.05-12.94-22.57-30.87-22.57-53.8c0-21.34,7.77-38.88,23.31-52.61
		c15.54-13.73,34.2-20.6,55.99-20.6c22.77,0,40.19,6.42,52.27,19.27c12.08,12.85,18.12,28.56,18.12,47.13h-91
		c0,7.12,0.54,14.38,1.62,21.79c1.08,7.41,3.14,14.58,6.18,21.49c3.04,6.92,7.35,12.5,12.95,16.75c5.59,4.25,12.61,6.38,21.05,6.38
		c12.13,0,21.72-3.41,28.78-10.23c7.06-6.82,12.47-15.36,16.25-25.64L1128.16,173.4z M1030.05,60.17
		c7.51-7.31,17.05-18.48,28.61-33.5c11.56-15.02,20.11-22.53,25.64-22.53c3.95,0,7.36,0.55,10.23,1.63
		c2.86,1.09,4.84,2.33,5.93,3.71c1.08,1.39,1.63,4.45,1.63,9.19c0,6.33-1.33,10.77-4,13.34c-2.67,2.57-8.74,5.83-18.23,9.78
		c-9.49,3.96-18.18,7.61-26.08,10.97c-7.91,3.36-15.02,6.92-21.34,10.67L1030.05,60.17z M1075.7,134.87
		c-0.2-2.17-0.35-4.74-0.45-7.71c-0.1-2.97-0.14-6.72-0.14-11.27c0-12.05-1.47-21.19-4.42-27.42c-2.95-6.22-8.04-9.34-15.3-9.34
		c-6.28,0-10.64,3.01-13.09,9.04c-2.46,6.03-4.17,15.27-5.15,27.72l-0.59,18.97H1075.7z"/>
	<path class="st0" d="M1229.24,217.87h-96.35v-4.74l7.12-0.29c5.73-0.59,9.2-1.97,10.39-4.15c1.18-2.17,1.78-6.91,1.78-14.23
		l0.3-13.64v-70.84l-0.3-12.15c-0.4-4.74-0.99-8.3-1.78-10.67c-0.79-2.37-4.35-3.85-10.67-4.44l-8-0.59v-4.74h77.96v103.45
		l0.3,13.64c0,7.12,0.59,11.81,1.78,14.08c1.18,2.27,4.64,3.71,10.37,4.3l7.11,0.29V217.87z M1151.58,27.86
		c0-7.71,2.83-14.27,8.49-19.71c5.66-5.43,12.46-8.15,20.41-8.15c8.14,0,15.04,2.62,20.7,7.85c5.66,5.24,8.49,11.91,8.49,20.01
		c0,7.91-2.84,14.58-8.49,20.01c-5.66,5.44-12.56,8.15-20.7,8.15c-7.95,0-14.75-2.72-20.41-8.15
		C1154.41,42.44,1151.58,35.77,1151.58,27.86z"/>
	<path class="st0" d="M1244.36,156.51h3.85c5.14,16.01,10.27,27.77,15.41,35.27c5.14,7.51,10.72,13.14,16.75,16.9
		c6.02,3.76,13.39,5.63,22.08,5.63c4.94,0,9.19-1.33,12.75-4c3.56-2.67,5.33-6.37,5.33-11.11c0-6.12-1.38-10.67-4.15-13.64
		c-2.77-2.97-7.12-6.17-13.04-9.63c-5.93-3.45-12.8-7.31-20.6-11.56c-7.81-4.25-14.33-8.4-19.56-12.45
		c-5.24-4.05-9.29-8.64-12.15-13.78c-2.87-5.14-4.3-11.06-4.3-17.79c0-14.62,5.53-25.94,16.6-33.94c11.06-8,24.6-12,40.61-12
		c7.51,0,14.62,1.39,21.34,4.15c6.52,3.36,13.14,6.62,19.86,9.78c2.76,0,5.14-1.68,7.11-5.04c1.97-3.36,2.96-7.31,2.96-11.85h4.15
		v59.58h-3.85c-1.58-4.74-3.56-9.98-5.93-15.71c-2.37-5.73-5.78-11.51-10.23-17.34c-4.45-5.83-9.14-10.32-14.08-13.49
		c-4.94-3.16-11.26-4.74-18.97-4.74c-5.54,0-10.03,1.33-13.49,4c-3.46,2.67-5.19,5.98-5.19,9.93c0,4.55,1.23,8.1,3.7,10.67
		c2.47,2.57,6.08,5.29,10.82,8.15c4.74,2.87,11.21,6.52,19.41,10.97c8.2,4.45,15.56,8.85,22.08,13.19
		c6.52,4.35,11.96,9.74,16.3,16.15c4.34,6.42,6.52,13.78,6.52,22.08c0,15.22-5.78,26.68-17.34,34.38
		c-11.56,7.71-25.54,11.56-41.94,11.56c-8.5,0-16.8-1.78-24.9-5.34c-7.91-3.95-15.71-8-23.42-12.15c-2.57,0-4.84,2.07-6.82,6.22
		c-1.98,4.15-3.16,8.6-3.56,13.34h-4.15V156.51z"/>
</g>
</svg>
