<svg width="183" height="68" viewBox="0 0 183 68" fill="none" xmlns="http://www.w3.org/2000/svg">
<g clip-path="url(#clip0)">
<path d="M41.8038 18.9571C41.8038 20.322 42.368 21.3814 43.4964 22.138C44.6248 22.8933 45.9244 23.2716 47.3952 23.2716C49.6901 23.2716 51.1849 22.8254 51.881 21.9331C52.5758 21.0408 52.9232 20.0078 52.9232 18.8314H52.4782C52.4782 19.6709 52.2892 20.4325 51.9101 21.115C51.531 21.7974 50.9313 22.138 50.1123 22.138C49.5024 22.138 48.9978 21.9067 48.5971 21.4455C48.1978 20.9843 47.9974 20.3018 47.9974 19.3982L47.934 17.7921V9.2272H51.6249L52.0661 8.03075H47.9328V1.76324H47.0389C46.7828 2.28857 46.4164 2.87674 45.9371 3.52649C45.4578 4.1775 44.8619 4.84359 44.1481 5.52601C43.4343 6.20844 42.685 6.80666 41.9001 7.32068C41.114 7.83595 40.3609 8.18659 39.6407 8.37511V9.22594H41.8012V18.9571H41.8038Z" fill="white"/>
<path d="M54.4637 0.991591C54.6437 1.21153 54.7337 1.60615 54.7337 2.17295L54.7654 3.46366V19.0199L54.7337 20.469C54.7337 21.2457 54.6703 21.7496 54.5435 21.9809C54.4168 22.2121 54.0453 22.3592 53.4316 22.422L52.7013 22.4534V22.9574H62.568V22.4534L62.1585 22.422C61.5702 22.422 61.2177 22.3014 61.1024 22.0601C60.987 21.8188 60.9286 21.2884 60.9286 20.4703L60.8969 19.0212V10.959C61.0859 10.4764 61.3331 10.0039 61.6374 9.54139C61.943 9.08016 62.4514 8.84891 63.1665 8.84891C63.7548 8.84891 64.196 9.03743 64.4902 9.41571C64.7843 9.794 64.9314 10.4236 64.9314 11.3046L64.9631 12.5953V19.0199L64.9314 20.469C64.9314 21.267 64.868 21.7911 64.7425 22.0437C64.6157 22.2951 64.2695 22.422 63.7028 22.422L63.2933 22.4534V22.9574H73.1283V22.4534L72.4297 22.422C71.8148 22.3592 71.4445 22.2071 71.3178 21.9658C71.191 21.7245 71.1276 21.2256 71.1276 20.4703L71.0959 19.0212V11.9343C71.0959 10.6964 70.5317 9.68215 69.402 8.89541C68.2723 8.10867 66.974 7.71405 65.5045 7.71405C64.1783 7.71405 63.1576 7.94529 62.4425 8.40653C61.7274 8.86902 61.1695 9.52003 60.7702 10.3595C60.8133 10.0655 60.845 9.68215 60.8653 9.2096C60.8868 8.73706 60.8969 8.15517 60.8969 7.46144V0H52.0978V0.503964L53.3048 0.566803C53.8969 0.629641 54.2836 0.771656 54.4637 0.991591Z" fill="white"/>
<path d="M76.0228 21.2092C77.6356 22.5841 79.6946 23.2716 82.1987 23.2716C83.9814 23.2716 85.5307 22.8254 86.8455 21.9331C88.1616 21.0408 89.1163 19.8079 89.711 18.2332L89.2 18.0132C88.7955 19.1054 88.2148 20.0128 87.4579 20.7367C86.701 21.4606 85.674 21.8225 84.3731 21.8225C83.4691 21.8225 82.7173 21.5976 82.1175 21.1451C81.5178 20.6939 81.0551 20.1007 80.7292 19.3655C80.4034 18.6303 80.1827 17.87 80.0661 17.082C79.9507 16.2952 79.8924 15.5236 79.8924 14.767H89.645C89.645 12.7939 88.9971 11.1249 87.7026 9.76005C86.4081 8.39519 84.5405 7.71277 82.0998 7.71277C79.7656 7.71277 77.7649 8.44295 76.0989 9.9008C74.4329 11.3599 73.5999 13.2237 73.5999 15.4909C73.6049 17.929 74.41 19.8343 76.0228 21.2092ZM79.9571 12.124C80.0623 10.8019 80.2461 9.82037 80.5086 9.17942C80.771 8.53972 81.2389 8.21925 81.9109 8.21925C82.6881 8.21925 83.2346 8.54978 83.5503 9.21084C83.866 9.8719 84.0232 10.8434 84.0232 12.124C84.0232 12.6079 84.0283 13.0063 84.0384 13.3205C84.0485 13.6359 84.065 13.9086 84.0866 14.1386H79.8924L79.9571 12.124Z" fill="white"/>
<path d="M69.364 31.1013C69.364 31.8365 69.6987 32.4925 70.3694 33.0694C71.0401 33.6475 71.7907 33.9353 72.6212 33.9353C73.5797 33.9353 74.3024 33.699 74.7918 33.2265C75.2812 32.7539 75.5272 32.1293 75.5272 31.3526C75.5272 30.4917 75.214 29.7414 74.5877 29.1005C73.9613 28.4608 73.3046 27.9669 72.6148 27.62C71.9251 27.2731 71.1872 27.0004 70.4024 26.8019C69.6175 26.602 68.7566 26.5027 67.8235 26.5027C65.3409 26.5027 63.2667 27.2166 61.6007 28.6443C59.9346 30.072 59.1029 31.9609 59.1029 34.3123C59.1029 36.6424 59.9524 38.5162 61.6488 39.9338C63.3465 41.3515 65.4043 42.059 67.8235 42.059C71.494 42.059 74.0412 40.5057 75.4625 37.3989L74.9845 37.1463C74.5382 38.2598 73.8802 39.1773 73.0079 39.9024C72.1368 40.6263 71.1175 40.9883 69.9485 40.9883C68.3116 40.9883 67.1705 40.2795 66.5226 38.8631C65.8747 37.4454 65.5501 35.7827 65.5501 33.8712C65.5501 33.136 65.5983 32.3756 65.6934 31.5876C65.7885 30.8009 65.9483 30.0707 66.1701 29.3996C66.392 28.7285 66.7052 28.1617 67.1071 27.6992C67.509 27.238 68.0073 27.0067 68.6007 27.0067C69.066 27.0067 69.4261 27.1123 69.6809 27.3222C69.9358 27.532 70.0626 27.8048 70.0626 28.1403C70.0626 28.4972 69.9459 28.9384 69.7126 29.4624C69.4806 29.9878 69.364 30.5332 69.364 31.1013Z" fill="white"/>
<path d="M78.5295 28.7235C76.8673 30.2039 76.0355 32.0564 76.0355 34.2809C76.0355 36.5066 76.8558 38.3591 78.4978 39.8396C80.1384 41.3201 82.1772 42.059 84.6128 42.059C86.9204 42.059 88.9275 41.3188 90.6328 39.8396C92.3368 38.3591 93.1901 36.5066 93.1901 34.2809C93.1901 32.035 92.3482 30.1763 90.6645 28.7071C88.9807 27.238 86.9635 26.5027 84.6128 26.5027C82.219 26.5027 80.1917 27.243 78.5295 28.7235ZM86.218 28.1089C86.5679 28.8441 86.7416 29.7779 86.7416 30.9115C86.7416 31.0799 86.7619 31.604 86.805 32.4862C86.8468 33.3685 86.8684 33.9554 86.8684 34.2495C86.8253 34.942 86.7936 35.5779 86.7733 36.1547C86.7518 36.7328 86.7416 37.2305 86.7416 37.6503C86.7416 38.7424 86.5616 39.6662 86.2015 40.4215C85.8414 41.178 85.3127 41.5551 84.6128 41.5551C83.8927 41.5551 83.3576 41.1881 83.0089 40.4529C82.659 39.7177 82.4853 38.7839 82.4853 37.6503C82.4853 37.5032 82.4637 36.9729 82.4219 36.0605C82.3788 35.1468 82.3585 34.5436 82.3585 34.2495C82.3788 33.5784 82.4067 32.9537 82.4384 32.3756C82.4701 31.7988 82.4866 31.3099 82.4866 30.9115C82.4866 29.8407 82.6666 28.9233 83.0267 28.1567C83.3868 27.39 83.9053 27.0067 84.5837 27.0067C85.3228 27.0067 85.868 27.3749 86.218 28.1089Z" fill="white"/>
<path d="M110.504 37.3989L110.026 37.1463C109.58 38.2598 108.922 39.1772 108.05 39.9024C107.179 40.6263 106.159 40.9882 104.99 40.9882C103.354 40.9882 102.212 40.2794 101.565 38.8631C100.917 37.4454 100.592 35.7827 100.592 33.8712C100.592 33.136 100.64 32.3756 100.735 31.5876C100.83 30.8009 100.99 30.0707 101.212 29.3996C101.434 28.7285 101.747 28.1617 102.149 27.6992C102.551 27.2379 103.049 27.0067 103.643 27.0067C104.108 27.0067 104.468 27.1123 104.723 27.3221C104.978 27.532 105.104 27.8047 105.104 28.1403C105.104 28.4972 104.988 28.9383 104.755 29.4624C104.521 29.9877 104.405 30.5332 104.405 31.1C104.405 31.8352 104.739 32.4912 105.41 33.0681C106.081 33.6462 106.831 33.934 107.662 33.934C108.62 33.934 109.343 33.6977 109.832 33.2252C110.322 32.7526 110.568 32.128 110.568 31.3513C110.568 30.4905 110.255 29.7402 109.628 29.0992C109.002 28.4595 108.345 27.9656 107.655 27.6187C106.966 27.2719 106.228 26.9991 105.443 26.8006C104.658 26.6008 103.797 26.5015 102.864 26.5015C100.382 26.5015 98.3073 27.2153 96.6413 28.643C94.9753 30.0707 94.1436 31.9596 94.1436 34.311C94.1436 36.6411 94.993 38.5149 96.6895 39.9326C98.3872 41.3502 100.445 42.0578 102.864 42.0578C106.536 42.059 109.082 40.5056 110.504 37.3989Z" fill="white"/>
<path d="M112.553 19.7803C112.733 20.0002 112.823 20.3948 112.823 20.9616L112.855 22.2523V37.8086L112.823 39.2576C112.823 40.0343 112.76 40.5383 112.633 40.7695C112.507 41.0008 112.135 41.1478 111.521 41.2107L110.791 41.2421V41.7461H120.848V41.2421L120.248 41.2107C119.66 41.2107 119.308 41.09 119.192 40.85C119.077 40.6087 119.018 40.0796 119.018 39.2627L118.987 37.8174V35.5552L119.586 34.9268C120.133 35.7651 120.7 36.6448 121.289 37.566C121.878 38.4885 122.314 39.1898 122.598 39.6711C122.882 40.1525 123.024 40.4981 123.024 40.708C123.024 41.0435 122.75 41.2107 122.203 41.2107L121.573 41.2421V41.7461H132.331V41.2421L131.569 41.2107C131.146 41.1478 130.811 41.0222 130.569 40.8336C130.326 40.6451 129.954 40.1789 129.457 39.4349C128.959 38.6908 128.17 37.4554 127.09 35.7274C126.01 33.9993 124.951 32.2977 123.913 30.6224C124.19 30.3296 124.493 30.0154 124.823 29.6798C125.153 29.3443 125.547 28.9785 126.006 28.5801C126.464 28.183 126.811 27.9153 127.044 27.7796C127.279 27.6439 127.572 27.5395 127.923 27.4654C128.274 27.3925 128.55 27.3498 128.753 27.3397C128.956 27.3297 129.163 27.3234 129.377 27.3234V26.8194H123.372V27.3234L124.453 27.3862C124.706 27.4076 124.903 27.4541 125.04 27.5282C125.177 27.6011 125.246 27.7218 125.246 27.8889C125.246 28.1616 125.03 28.56 124.598 29.0829C124.166 29.6069 123.391 30.4439 122.274 31.5964C121.157 32.7488 120.04 33.89 118.923 35.0211L118.987 32.9411V18.7899H110.186V19.2939L111.393 19.3567C111.987 19.417 112.373 19.5591 112.553 19.7803Z" fill="white"/>
<path d="M142.753 39.9024C142.374 40.5848 141.774 40.9254 140.955 40.9254C140.346 40.9254 139.841 40.6942 139.44 40.2329C139.041 39.7717 138.841 39.0893 138.841 38.1857L138.777 36.5795V28.0146H142.468L142.909 26.8182H138.776V20.5519H137.882C137.626 21.0773 137.26 21.6654 136.78 22.3152C136.301 22.9662 135.705 23.6323 134.991 24.3147C134.277 24.9971 133.528 25.5954 132.743 26.1094C131.957 26.6246 131.204 26.9753 130.484 27.1638V28.0146H132.644V37.7458C132.644 39.1106 133.209 40.1701 134.337 40.9267C135.465 41.682 136.765 42.0603 138.236 42.0603C140.531 42.0603 142.026 41.6141 142.722 40.7218C143.416 39.8295 143.764 38.7965 143.764 37.6201H143.319C143.321 38.4584 143.132 39.22 142.753 39.9024Z" fill="white"/>
<path d="M161.556 37.037C161.556 37.9016 161.457 38.6457 161.258 39.2678C161.059 39.8899 160.709 40.2015 160.208 40.2015C159.79 40.2015 159.529 40.0118 159.425 39.6322C159.299 39.274 159.237 38.7575 159.237 38.0814V30.8361C159.237 29.3594 158.516 28.2685 157.072 27.5622C155.628 26.8559 154.048 26.5027 152.327 26.5027C150.29 26.5027 148.534 26.8923 147.058 27.6728C145.583 28.4533 144.845 29.4964 144.845 30.8047C144.845 31.4582 145.115 31.9797 145.658 32.3706C146.199 32.7602 146.831 32.955 147.555 32.955C148.872 32.955 149.822 32.7024 150.406 32.1959C150.991 31.6894 151.282 31.1088 151.282 30.4553C151.282 29.759 151.057 29.2375 150.605 28.8881C150.154 28.54 149.928 28.2509 149.928 28.0184C149.928 27.7231 150.07 27.4805 150.353 27.2907C150.636 27.101 150.988 27.0055 151.407 27.0055C152.077 27.0055 152.517 27.1839 152.728 27.5421C152.937 27.9003 153.042 28.4884 153.042 29.3091L153.074 32.1808C153.074 32.5591 152.957 32.8281 152.724 32.9852C152.491 33.1435 152.104 33.2906 151.565 33.4275C151.025 33.5645 150.183 33.6852 149.04 33.7908C147.896 33.8963 147.049 34.022 146.499 34.169C145.947 34.3161 145.407 34.7107 144.878 35.3529C144.348 35.9939 144.083 36.8409 144.083 37.8929C144.083 39.1974 144.507 40.2179 145.354 40.9543C146.201 41.6908 147.303 42.059 148.658 42.059C149.928 42.059 150.962 41.8466 151.755 41.4206C152.549 40.9946 153.116 40.3561 153.454 39.5053C153.603 40.2832 154.031 40.9028 154.741 41.3653C155.45 41.8278 156.26 42.059 157.172 42.059C157.997 42.059 158.676 41.9799 159.206 41.8228C159.734 41.6644 160.334 41.2912 161.001 40.7017C161.668 40.1123 162.001 38.8907 162.001 37.0382H161.556V37.037ZM153.075 39.2564C152.992 39.6134 152.798 39.9502 152.495 40.2644C152.19 40.5798 151.84 40.7369 151.442 40.7369C150.919 40.7369 150.583 40.4529 150.437 39.8861C150.29 39.3193 150.217 38.5627 150.217 37.6176C150.217 36.988 150.274 36.3734 150.39 35.7752C150.505 35.177 150.661 34.7723 150.862 34.5624C151.061 34.3525 151.417 34.1376 151.929 33.9164C152.443 33.6965 152.794 33.459 152.981 33.2076L153.075 33.239V39.2564Z" fill="white"/>
<path d="M170.325 40.752C170.198 40.5107 170.135 40.0118 170.135 39.2565L170.103 37.8074V26.817H161.748V27.3209L162.606 27.3838C163.284 27.4466 163.665 27.6037 163.75 27.8563C163.835 28.1089 163.898 28.4859 163.94 28.9899L163.972 30.2806V37.8061L163.94 39.2552C163.94 40.0319 163.875 40.5359 163.748 40.7671C163.622 40.9983 163.25 41.1454 162.635 41.2082L161.872 41.2396V41.7436H172.199V41.2396L171.437 41.2082C170.822 41.1466 170.452 40.9933 170.325 40.752Z" fill="white"/>
<path d="M166.973 24.551C167.845 24.551 168.585 24.2632 169.191 23.685C169.797 23.1082 170.102 22.3994 170.102 21.5599C170.102 20.699 169.797 19.9901 169.191 19.4347C168.584 18.8792 167.845 18.6002 166.973 18.6002C166.121 18.6002 165.392 18.8892 164.785 19.4661C164.179 20.0442 163.875 20.7417 163.875 21.5599C163.875 22.3994 164.178 23.1082 164.785 23.685C165.392 24.2619 166.122 24.551 166.973 24.551Z" fill="white"/>
<path d="M182.238 41.2094C181.623 41.1466 181.253 40.9945 181.126 40.7532C180.999 40.5119 180.936 40.013 180.936 39.2577L180.904 37.8086V18.7874H172.327V19.2914L173.407 19.3542C174.085 19.4171 174.466 19.5742 174.551 19.8268C174.636 20.0794 174.699 20.4564 174.741 20.9604L174.773 22.2511V37.8074L174.741 39.2564C174.741 40.0331 174.676 40.5371 174.55 40.7683C174.421 40.9996 174.049 41.1466 173.431 41.2094L172.664 41.2409V41.7448H183V41.2409L182.238 41.2094Z" fill="white"/>
<path d="M59.8484 66.6942C59.7216 66.4529 59.6582 65.954 59.6582 65.1987L59.6265 63.7496V52.7592H51.8112H51.2711H48.2218L48.2852 49.4526C48.2852 48.1506 48.4475 47.0748 48.7734 46.2252C49.0979 45.3744 49.6279 44.9496 50.362 44.9496C50.7183 44.9496 50.9858 45.0125 51.1646 45.1381C51.3434 45.2638 51.4321 45.4523 51.4321 45.7049C51.4321 45.9148 51.2217 46.2403 50.7994 46.6814C50.3772 47.1226 50.1668 47.6165 50.1668 48.1619C50.1668 48.9172 50.4596 49.5217 51.0441 49.9729C51.6286 50.4241 52.3044 50.6503 53.0702 50.6503C53.7334 50.6503 54.3432 50.4568 54.9023 50.0722C55.3753 50.3512 55.9065 50.4932 56.4986 50.4932C57.3709 50.4932 58.1114 50.2054 58.7174 49.6273C59.3235 49.0505 59.6278 48.3416 59.6278 47.5021C59.6278 46.6412 59.3235 45.9337 58.7174 45.3769C58.1101 44.8214 57.3709 44.5424 56.4986 44.5424C55.7024 44.5424 55.0152 44.7975 54.4332 45.3028C53.3416 44.7121 52.0762 44.4167 50.6384 44.4167C48.4564 44.4167 46.5026 45.0414 44.777 46.2906C43.0501 47.5398 42.1879 48.9097 42.1879 50.4002C42.1879 50.6101 42.1727 50.9519 42.1397 51.4232C42.108 51.8958 42.0916 52.3419 42.0916 52.7617H40.281L39.7726 53.9581H42.0916V63.7521L42.0599 65.2012C42.0599 65.9779 41.9965 66.4818 41.8684 66.7131C41.7416 66.9443 41.3701 67.0914 40.7565 67.1542L39.9945 67.1856V67.6896H50.6689V67.1856L49.5404 67.1542C48.9331 67.07 48.568 66.9129 48.4424 66.6817C48.3169 66.4504 48.2548 65.9578 48.2548 65.2012L48.2244 63.7521V53.9581H51.2736L51.5767 53.2883L52.132 53.3285C52.8103 53.3913 53.1907 53.5484 53.2756 53.801C53.3606 54.0537 53.424 54.4307 53.4658 54.9346L53.4975 56.2253V63.7521L53.4658 65.2012C53.4658 65.9779 53.4012 66.4818 53.2744 66.7131C53.1476 66.9443 52.7761 67.0914 52.1612 67.1542L51.3979 67.1856V67.6896H61.7249V67.1856L60.9629 67.1542C60.3467 67.0876 59.9752 66.9355 59.8484 66.6942Z" fill="white"/>
<path d="M80.8789 66.6942C80.7521 66.4529 80.6887 65.954 80.6887 65.1986L80.657 63.7496V56.6639C80.657 55.5303 80.1055 54.5438 79.0049 53.7042C77.9031 52.8647 76.601 52.4449 75.0973 52.4449C73.3603 52.4449 72.19 52.7441 71.5865 53.3423C70.983 53.9405 70.5646 54.5337 70.3313 55.1219V52.7591H62.2307V53.2631L62.961 53.3259C63.6381 53.3888 64.0197 53.5459 64.1047 53.7985C64.1896 54.0511 64.253 54.4281 64.2961 54.9321L64.3278 56.2228V63.7496L64.2961 65.1986C64.2961 65.9753 64.2327 66.4793 64.1047 66.7105C63.9779 66.9418 63.6064 67.0888 62.9927 67.1517L62.2307 67.1831V67.687H72.1292V67.1831C71.3507 67.1831 70.8841 67.0687 70.7269 66.8362C70.5696 66.605 70.491 66.0595 70.491 65.1986L70.4593 63.7496V55.6874C70.6482 55.2048 70.8955 54.7323 71.1998 54.2698C71.5041 53.8085 72.0252 53.5773 72.7606 53.5773C73.9156 53.5773 74.4938 54.3955 74.4938 56.033L74.5255 57.3237V63.7471L74.4938 65.1961C74.4938 66.0356 74.4088 66.5773 74.2415 66.8186C74.0728 67.0599 73.6113 67.1806 72.8544 67.1806V67.6845H82.6894V67.1806L81.9908 67.1491C81.3772 67.0876 81.0069 66.9355 80.8789 66.6942Z" fill="white"/>
<path d="M100.497 66.6942C100.295 66.4743 100.195 66.0796 100.195 65.5141L100.163 64.2221V44.7297H90.8229V45.2336L92.3012 45.3279C92.9935 45.4121 93.4436 45.5692 93.6541 45.8004C93.8633 46.0317 93.9685 46.4929 93.9685 47.1854L94.0319 48.6345V52.6649L94.0636 54.3025C93.8303 53.8613 93.4702 53.4416 92.9834 53.0432C92.4965 52.6448 91.5114 52.445 90.0292 52.445C87.9955 52.445 86.3434 53.1488 85.073 54.5551C83.8026 55.9614 83.1674 57.8302 83.1674 60.1603C83.1674 62.5745 83.8026 64.4848 85.073 65.8911C86.3434 67.2975 87.9955 68.0012 90.0292 68.0012C91.4695 68.0012 92.4483 67.7914 92.9682 67.3716C93.4867 66.9518 93.8633 66.5321 94.0966 66.1123V67.6871H102.674V67.1831L101.657 67.1203C101.084 67.0562 100.697 66.9141 100.497 66.6942ZM94.0319 60.159C94.0319 60.7685 94.0205 61.686 94.0002 62.9138C93.9787 64.1417 93.947 64.9976 93.9051 65.4802C93.715 66.5937 93.0366 67.1492 91.8714 67.1492C91.1931 67.1492 90.691 66.8337 90.3626 66.2041C90.0343 65.5744 89.8225 64.7663 89.7274 63.7798C89.6323 62.7932 89.5842 62.1007 89.5842 61.7011V60.2834C89.5842 59.738 89.5943 59.1448 89.6159 58.5039C89.6374 57.8642 89.6957 57.1491 89.7908 56.3623C89.8859 55.5756 90.0977 54.8718 90.426 54.2522C90.7544 53.6339 91.2464 53.3235 91.9031 53.3235C92.4116 53.3235 92.8566 53.4604 93.237 53.7332C93.6186 54.0059 93.8506 54.4055 93.9356 54.9296C93.999 55.602 94.0307 56.3787 94.0307 57.2596V60.159H94.0319Z" fill="white"/>
<path d="M116.749 65.4651C115.992 66.189 114.965 66.5522 113.664 66.5522C112.76 66.5522 112.008 66.3272 111.408 65.8748C110.809 65.4236 110.346 64.8304 110.02 64.0952C109.694 63.36 109.474 62.5996 109.357 61.8116C109.242 61.0249 109.183 60.2533 109.183 59.4967H118.936C118.936 57.5236 118.288 55.8546 116.994 54.4897C115.699 53.1249 113.831 52.4424 111.391 52.4424C109.057 52.4424 107.056 53.1726 105.39 54.6305C103.724 56.0896 102.891 57.9521 102.891 60.2206C102.891 62.6562 103.697 64.5615 105.31 65.9364C106.923 67.3113 108.982 67.9987 111.486 67.9987C113.268 67.9987 114.818 67.5526 116.133 66.6603C117.449 65.768 118.403 64.5338 118.998 62.9603L118.487 62.7404C118.085 63.8338 117.506 64.7412 116.749 65.4651ZM109.248 56.8524C109.353 55.5303 109.537 54.5488 109.799 53.9078C110.062 53.2681 110.53 52.9477 111.202 52.9477C111.979 52.9477 112.525 53.2782 112.841 53.9393C113.157 54.6003 113.314 55.5718 113.314 56.8524C113.314 57.335 113.319 57.7347 113.329 58.0489C113.339 58.3643 113.356 58.6371 113.377 58.867H109.183L109.248 56.8524Z" fill="white"/>
<path d="M131.964 52.5707C130.227 52.5707 129.12 52.949 128.642 53.7043C128.164 54.4596 127.852 55.0264 127.707 55.4047V52.7592H119.447V53.2632L120.272 53.326C120.949 53.3888 121.331 53.5459 121.416 53.7985C121.501 54.0512 121.564 54.4282 121.607 54.9322L121.639 56.2229V63.7496L121.607 65.1987C121.607 65.9754 121.544 66.4794 121.416 66.7106C121.289 66.9418 120.918 67.0889 120.304 67.1517L119.446 67.1831V67.6871H130.057V67.1831L129.117 67.1203C128.533 67.0575 128.166 66.9205 128.02 66.7106C127.875 66.5007 127.801 66.1023 127.801 65.5142L127.771 63.9394V56.6652C127.771 56.0984 127.972 55.4902 128.377 54.8392C128.781 54.1881 129.257 53.8626 129.804 53.8626C129.91 53.8626 130.016 53.9368 130.121 54.0826C129.91 54.5023 129.698 54.912 129.486 55.3104C129.296 55.7516 129.201 56.2342 129.201 56.7595C129.201 57.4733 129.491 58.108 130.074 58.6648C130.656 59.2215 131.35 59.4993 132.155 59.4993C133.129 59.4993 133.95 59.18 134.617 58.5391C135.284 57.8994 135.618 57.0963 135.618 56.1299C135.618 55.1647 135.263 54.3302 134.554 53.6264C133.843 52.9226 132.98 52.5707 131.964 52.5707Z" fill="white"/>
<path d="M22.8792 61.2926V50.2632L38.9738 34.3098C38.9928 34.296 38.9992 34.2771 39.0169 34.2608C39.1234 34.1703 39.1982 34.0735 39.2705 33.9742C39.306 33.9252 39.3554 33.88 39.3846 33.8285C39.4683 33.6764 39.5177 33.5155 39.5177 33.3446C39.5177 33.1548 39.4505 32.9864 39.3618 32.8331C39.3415 32.7954 39.3187 32.7652 39.2933 32.73C39.183 32.5855 39.0499 32.4636 38.88 32.3945C38.88 32.3945 38.88 32.392 38.8774 32.392C38.8736 32.3895 38.8711 32.392 38.8673 32.392C38.7469 32.343 38.615 32.314 38.4781 32.314C38.44 32.314 38.4159 32.3404 38.3804 32.343C38.2803 32.353 38.1953 32.3882 38.1015 32.4259C38.0039 32.4649 37.9138 32.5026 37.8352 32.5667C37.8086 32.5893 37.768 32.5893 37.744 32.6144L37.3699 32.9852C37.2913 33.0203 37.1937 33.0568 37.0834 33.0945C36.9731 33.1322 36.8653 33.1686 36.7258 33.2064C36.5661 33.2491 36.3696 33.2931 36.173 33.3358C36.0019 33.3735 35.8383 33.41 35.6405 33.4477C35.406 33.4904 35.1334 33.5344 34.8608 33.5771C34.6376 33.6123 34.4259 33.6475 34.1786 33.6827C33.8693 33.7254 33.5168 33.7656 33.1694 33.8058C32.8993 33.8372 32.6432 33.8699 32.3503 33.9001C31.9674 33.939 31.5389 33.9742 31.1192 34.0094C30.8098 34.0358 30.5144 34.0647 30.1835 34.0873C29.7119 34.1225 29.1933 34.1489 28.6836 34.1778C28.3527 34.1967 28.0433 34.2193 27.6972 34.2356C27.1089 34.262 26.4724 34.2834 25.8397 34.301C25.524 34.3111 25.2299 34.3261 24.904 34.3324C23.9303 34.3638 22.9096 34.3751 21.8408 34.3751C20.8772 34.3751 19.958 34.3626 19.0679 34.3437C18.7763 34.3374 18.5037 34.3274 18.2209 34.3211C17.9902 34.3148 17.7721 34.3048 17.5477 34.2985L16.2126 32.4385C17.9217 32.3618 19.7893 32.3128 21.8408 32.3128H26.0007C26.5751 32.3128 27.0404 31.8516 27.0404 31.2822C27.0404 30.7129 26.5751 30.2517 26.0007 30.2517H21.8408C19.5193 30.2517 17.076 30.2994 14.7647 30.4226L11.368 25.6972L20.3358 19.7702C20.7187 19.5189 20.8873 19.0489 20.7542 18.614C20.6211 18.1792 20.2191 17.8826 19.7602 17.8826H5.20095C4.75339 17.8826 4.35654 18.1666 4.21326 18.5876L0.0533081 30.9567C-0.0861601 31.3752 0.0558439 31.8352 0.409586 32.1029C0.597234 32.2437 0.819115 32.3128 1.04226 32.3128C1.24386 32.3128 1.44419 32.255 1.61789 32.1394L9.63604 26.8408L12.329 30.5885C8.39604 30.9241 5.24533 31.5663 4.40472 32.7137C4.37555 32.7514 4.34386 32.7816 4.31977 32.823C4.22467 32.9877 4.16128 33.1586 4.16128 33.3421C4.16128 33.513 4.21073 33.6739 4.29441 33.8285C4.32103 33.8775 4.37175 33.9252 4.40852 33.9742C4.48079 34.071 4.55559 34.1703 4.6621 34.2608C4.68112 34.2746 4.68746 34.2935 4.70521 34.3085L20.7986 50.2607V61.2901C12.504 62.2968 12.4787 63.5234 12.4787 64.2649C12.4787 67.2082 20.2762 67.3578 21.8382 67.3578C23.4003 67.3578 31.1978 67.2095 31.1978 64.2649C31.1991 63.5234 31.1737 62.2993 22.8792 61.2926ZM14.1624 34.1351C13.8936 34.1163 13.621 34.0999 13.3662 34.0811C12.8793 34.0434 12.4216 34.0044 11.9791 33.9629C11.7915 33.9441 11.5886 33.9277 11.4098 33.9114C10.8114 33.8511 10.251 33.7882 9.74381 33.7191C9.64238 33.7053 9.5625 33.6902 9.46487 33.6776C9.06802 33.6223 8.69273 33.5645 8.358 33.5067C8.216 33.4816 8.09428 33.4577 7.96242 33.4326C7.80013 33.4011 7.65686 33.3685 7.51359 33.3383C8.83473 33.0518 10.9787 32.774 13.7592 32.5792L14.9092 34.1766C14.6594 34.164 14.402 34.1514 14.1624 34.1351Z" fill="white"/>
<path d="M47.8376 33.3433C47.8376 28.2283 43.6383 24.0659 38.478 24.0659C33.75 24.0659 29.7422 27.7934 29.1184 32.3128C32.7915 32.0752 35.4553 31.5411 36.3974 31.2822C36.9857 30.6966 37.645 30.2517 38.4767 30.2517C38.8901 30.2517 39.2958 30.3321 39.6761 30.4905C40.8413 30.9668 41.5957 32.0878 41.5957 33.3433C41.5957 34.3123 41.1304 35.2235 40.2873 35.9059L35.9638 40.1965L35.7495 41.2044C35.6937 41.4721 35.7457 41.7511 35.8966 41.9798C36.0462 42.2086 36.2833 42.3669 36.5521 42.4235C37.1847 42.5554 37.8288 42.6208 38.4755 42.6208C43.6383 42.6208 47.8376 38.4584 47.8376 33.3433Z" fill="white"/>
</g>
<defs>
<clipPath id="clip0">
<rect width="183" height="68" fill="white"/>
</clipPath>
</defs>
</svg>
